<?xml version="1.0" standalone="no"?>
<!DOCTYPE svg PUBLIC "-//W3C//DTD SVG 20010904//EN"
 "http://www.w3.org/TR/2001/REC-SVG-20010904/DTD/svg10.dtd">
<svg version="1.0" xmlns="http://www.w3.org/2000/svg"
 width="10000.000000pt" height="1000.000000pt" viewBox="0 0 10000.000000 1000.000000"
 preserveAspectRatio="xMidYMid meet">

<g transform="translate(0.000000,1000.000000) scale(0.100000,-0.100000)"
fill="#000000" stroke="none">
<path d="M53886 8919 c-155 -37 -280 -173 -306 -336 -13 -79 -13 -5838 0
-5916 38 -234 256 -386 498 -348 193 29 324 162 352 356 6 44 10 537 10 1325
0 1184 1 1260 19 1345 60 293 271 552 581 714 235 123 523 177 809 152 371
-33 643 -151 853 -369 172 -179 267 -370 325 -657 14 -70 17 -227 22 -1305 6
-1095 8 -1230 23 -1272 85 -248 362 -365 603 -254 118 54 214 181 235 311 13
81 13 2173 -1 2370 -27 411 -115 725 -280 1013 -289 502 -769 820 -1384 917
-142 22 -435 30 -586 16 -427 -40 -805 -197 -1124 -465 -49 -41 -92 -76 -95
-76 -3 0 -4 460 -2 1022 2 681 0 1049 -7 1102 -25 184 -129 308 -296 351 -64
16 -187 18 -249 4z"/>
<path d="M66671 6989 c-420 -47 -796 -224 -1106 -520 l-92 -89 -6 138 c-7 169
-28 239 -93 311 -59 66 -132 99 -245 114 -104 13 -215 1 -292 -32 -109 -47
-185 -156 -207 -296 -7 -49 -10 -672 -8 -2025 l3 -1955 23 -65 c61 -176 209
-260 437 -247 148 9 251 59 313 153 71 107 66 -2 72 1534 6 1369 6 1386 27
1455 32 106 50 152 84 211 124 217 341 382 633 480 317 106 665 122 1066 51
77 -14 165 -22 230 -22 110 0 145 11 223 68 71 53 123 191 114 303 -16 199
-246 360 -602 420 -110 18 -457 26 -574 13z"/>
<path d="M50258 6969 c-1079 -114 -1864 -905 -1993 -2008 -17 -147 -20 -464
-4 -612 73 -721 467 -1358 1064 -1722 259 -157 505 -249 815 -303 179 -32 517
-44 706 -25 453 46 854 211 1182 486 143 119 192 210 179 332 -13 128 -131
277 -254 323 -131 49 -299 14 -428 -90 -289 -232 -628 -328 -1062 -299 -380
25 -670 155 -934 418 -274 275 -420 609 -448 1026 -40 618 168 1139 577 1448
250 188 530 278 872 278 256 0 457 -44 656 -144 122 -62 212 -127 345 -252 89
-84 131 -115 198 -148 81 -40 89 -42 175 -42 113 0 160 21 256 111 93 88 124
154 125 259 0 104 -20 144 -132 270 -297 333 -714 575 -1138 660 -66 13 -164
29 -217 34 -111 12 -425 12 -540 0z"/>
<path d="M61165 6974 c-713 -72 -1281 -406 -1661 -976 -136 -204 -263 -515
-317 -773 -47 -225 -52 -285 -52 -595 1 -331 14 -443 81 -689 219 -797 862
-1400 1694 -1586 192 -43 308 -56 545 -62 314 -7 518 21 822 113 315 95 642
262 820 419 107 94 138 232 80 358 -37 81 -132 177 -210 213 -55 26 -73 29
-162 28 -120 0 -178 -20 -294 -99 -146 -100 -340 -191 -522 -245 -265 -79
-546 -89 -840 -30 -332 67 -655 255 -872 505 -190 219 -303 453 -362 752 l-7
33 1669 2 1668 3 63 29 c43 20 80 47 117 88 93 100 111 206 85 513 -77 910
-530 1577 -1265 1865 -122 47 -259 84 -420 111 -94 17 -174 22 -370 24 -137 2
-268 1 -290 -1z m545 -743 c193 -39 340 -104 492 -218 211 -159 371 -389 463
-667 31 -92 75 -281 75 -320 0 -15 -127 -16 -1410 -16 -821 0 -1410 4 -1410 9
0 5 13 61 29 124 73 288 199 517 390 707 229 228 515 359 867 400 121 14 393
4 504 -19z"/>
<path d="M44925 6823 c-382 -26 -835 -179 -1080 -364 -111 -84 -228 -100 -289
-40 -27 27 -31 39 -33 89 0 32 5 82 13 112 11 43 12 61 3 83 -6 15 -13 27 -15
27 -2 0 -29 -10 -60 -21 -47 -18 -69 -20 -130 -15 -41 3 -107 9 -148 12 -60 5
-91 2 -157 -16 -93 -25 -164 -24 -218 3 -51 25 -59 22 -78 -35 -17 -50 -18
-162 -21 -1988 -2 -1214 1 -1958 7 -1998 37 -237 254 -391 499 -353 171 26
287 126 343 296 11 32 14 305 19 1375 l5 1335 23 75 c125 406 500 712 977 796
143 25 410 23 565 -4 287 -51 516 -167 692 -350 172 -179 267 -370 325 -657
14 -70 17 -227 22 -1305 6 -1095 8 -1230 23 -1272 85 -248 362 -365 603 -254
118 54 214 181 235 311 13 81 13 2173 -1 2370 -40 602 -227 1054 -580 1403
-153 151 -401 321 -444 306 -27 -10 -140 -7 -195 5 -253 57 -470 81 -690 79
-91 -1 -187 -3 -215 -5z"/>
<path d="M41075 6549 c-81 -65 -115 -109 -115 -146 0 -13 -4 -23 -10 -23 -5 0
-10 -15 -10 -33 0 -31 -13 -45 -182 -187 -173 -145 -183 -152 -186 -126 -2 14
-8 24 -13 21 -5 -4 -9 5 -9 19 0 14 -4 26 -9 26 -5 0 -12 23 -16 50 -4 28 -11
48 -15 45 -4 -3 -11 17 -15 45 -4 27 -11 50 -16 50 -5 0 -9 10 -9 23 0 32 -53
139 -84 170 -14 14 -26 23 -26 20 0 -3 -9 2 -20 12 -19 18 -20 12 -22 -1266
l-3 -1284 -23 -80 c-28 -95 -85 -220 -136 -294 -37 -55 -43 -75 -26 -86 6 -4
7 -11 4 -17 -4 -6 -8 -27 -9 -48 -4 -55 -48 -124 -129 -205 -90 -89 -158 -140
-271 -203 -223 -123 -464 -182 -745 -182 -269 0 -509 56 -755 176 -107 52
-103 50 -230 139 -93 65 -122 89 -226 188 -21 20 -39 35 -39 32 0 -2 -16 11
-35 31 -19 19 -35 31 -35 27 0 -4 -9 2 -18 15 -17 22 -19 22 -32 7 -12 -15
-15 -15 -25 5 -11 21 -14 19 -84 -39 l-72 -60 -34 33 c-18 19 -36 32 -39 29
-3 -3 -8 2 -12 11 -3 9 -12 16 -20 16 -8 0 -14 4 -14 8 0 5 -9 20 -20 33 -11
13 -23 29 -28 34 -37 44 -222 394 -222 419 0 3 -13 35 -30 71 -16 36 -30 70
-30 75 0 6 -4 10 -10 10 -5 0 -10 9 -10 19 0 11 -4 21 -8 23 -5 2 -30 57 -57
123 -26 66 -49 122 -51 124 -4 5 6 -171 17 -284 46 -482 212 -887 493 -1205
240 -271 579 -471 956 -564 317 -77 700 -87 1015 -25 349 69 689 238 936 466
l59 55 0 -65 c0 -243 138 -415 360 -450 200 -31 376 56 461 228 l34 70 0 1989
c0 1475 -3 1990 -11 1993 -7 2 -47 -24 -89 -58z"/>
<path d="M33164 6370 c-345 -39 -664 -189 -894 -420 -153 -153 -275 -354 -286
-472 -5 -60 -11 -65 70 61 226 352 586 594 991 667 136 24 402 24 540 0 511
-91 908 -425 1121 -941 18 -44 34 -78 35 -75 35 124 -63 398 -215 601 -217
288 -571 504 -926 563 -114 20 -338 28 -436 16z"/>
<path d="M37676 4775 c-24 -176 -28 -402 -8 -459 7 -23 16 -50 18 -60 14 -72
19 3 16 262 -3 421 -4 422 -26 257z"/>
<path d="M31195 3579 c4 -13 34 -75 66 -137 210 -404 533 -728 927 -931 553
-283 1287 -296 1847 -32 249 118 524 324 680 509 l60 71 6 -207 c5 -178 8
-215 27 -266 42 -115 128 -200 251 -247 78 -30 222 -31 305 -1 112 41 203 130
250 246 19 47 20 75 22 331 l3 280 -19 -125 c-24 -155 -31 -182 -62 -245 -28
-54 -163 -191 -220 -222 -26 -14 -55 -18 -138 -18 -103 0 -107 1 -164 35 -147
88 -170 128 -161 271 7 106 -1 138 -43 182 -34 37 -74 57 -109 57 -44 0 -154
-47 -204 -88 -26 -20 -82 -66 -125 -101 -276 -225 -585 -360 -956 -418 -162
-25 -513 -25 -663 0 -348 58 -614 169 -881 368 -172 128 -273 227 -466 454
-60 72 -124 146 -140 165 -17 19 -46 48 -65 64 -35 29 -35 29 -28 5z"/>
<path d="M67775 3350 c-121 -22 -225 -81 -319 -180 -111 -118 -159 -239 -159
-400 0 -168 51 -288 173 -410 122 -121 239 -170 410 -170 171 0 287 47 405
165 128 127 181 268 172 450 -8 156 -52 258 -156 369 -71 75 -156 131 -240
156 -75 24 -213 33 -286 20z"/>
<path d="M29002 2939 c107 -196 294 -379 493 -486 169 -89 326 -126 540 -127
200 0 323 34 437 122 59 45 123 134 114 158 -10 26 -101 11 -220 -37 -133 -54
-207 -69 -346 -69 -323 0 -573 106 -860 365 -91 82 -162 135 -180 135 -6 0 4
-27 22 -61z"/>
<path d="M22445 2473 l-29 -16 44 -39 c25 -21 70 -48 100 -59 123 -46 309 -42
414 10 73 36 126 85 109 102 -20 20 -104 22 -183 5 -92 -20 -194 -20 -280 -1
-85 19 -138 18 -175 -2z"/>
</g>
</svg>
