<svg width="114" height="27" viewBox="0 0 114 27" fill="none" xmlns="http://www.w3.org/2000/svg">
<path d="M12.0898 0L25.3912 26.8041C25.4507 26.9239 25.5748 27 25.7109 27H34.0445C34.3067 27 34.4786 26.7317 34.3645 26.5007L21.3661 0.196402C21.3067 0.0763016 21.1824 0 21.0461 0H12.0898Z" fill="url(#paint0_linear_137_130)"/>
<path d="M0.400391 21.3776H17.7396C17.8756 21.3776 17.9997 21.4536 18.0592 21.5733L20.5076 26.5001C20.6224 26.7311 20.4505 27 20.1879 27H3.47216C3.33715 27 3.21379 26.9251 3.15378 26.8068L0.400391 21.3776Z" fill="url(#paint1_linear_137_130)"/>
<path d="M0.400391 21.3776L12.0898 0L16.2461 8.3753C16.2966 8.47711 16.2934 8.5966 16.2374 8.69563L9.16888 21.1982C9.10628 21.3089 8.98717 21.3776 8.85787 21.3776H0.400391Z" fill="url(#paint2_linear_137_130)"/>
<path d="M46.9234 18.2041V15.9796H57.3531V18.2041H46.9234ZM53.85 6.40816L61.0154 21.7143H58.209L51.7004 7.42857H52.7155L46.2069 21.7143H43.4004L50.5658 6.40816H53.85Z" fill="white"/>
<path d="M61.999 10.1633H64.5865L65.2632 14.3673V21.7143H62.6757V13.8571L61.999 10.1633ZM70.9756 10.0816V12.4082C70.6837 12.3265 70.3653 12.2653 70.0203 12.2245C69.6752 12.1837 69.3502 12.1633 69.045 12.1633C68.3151 12.1633 67.6649 12.3265 67.0944 12.6531C66.5238 12.9796 66.0726 13.4694 65.7409 14.1224C65.4224 14.7619 65.2632 15.551 65.2632 16.4898L64.6661 15.7347C64.7192 14.9184 64.8519 14.1565 65.0642 13.449C65.2897 12.7279 65.5949 12.102 65.9797 11.5714C66.3778 11.0408 66.8622 10.6259 67.4327 10.3265C68.0033 10.0272 68.6668 9.87755 69.4231 9.87755C69.6885 9.87755 69.9605 9.89796 70.2392 9.93878C70.5179 9.96599 70.7633 10.0136 70.9756 10.0816Z" fill="white"/>
<path d="M72.605 6H75.1925V14.1429L74.7944 14.898V17.0408L75.1925 17.898V21.7143H72.605V6ZM74.1575 15.9388C74.4096 14.7143 74.8276 13.6531 75.4114 12.7551C75.9953 11.8435 76.7118 11.1361 77.5611 10.6327C78.4236 10.1293 79.379 9.87755 80.4272 9.87755C81.5286 9.87755 82.5039 10.1361 83.3531 10.6531C84.2024 11.1565 84.8658 11.8639 85.3435 12.7755C85.8212 13.6735 86.0601 14.7279 86.0601 15.9388C86.0601 17.1361 85.8212 18.1905 85.3435 19.102C84.8658 20.0136 84.2024 20.7279 83.3531 21.2449C82.5039 21.7483 81.5286 22 80.4272 22C79.379 22 78.4236 21.7483 77.5611 21.2449C76.7118 20.7415 75.9953 20.034 75.4114 19.1224C74.8276 18.2109 74.4096 17.1497 74.1575 15.9388ZM83.4327 15.9388C83.4327 15.1633 83.2735 14.483 82.955 13.898C82.6498 13.2993 82.2252 12.8367 81.6812 12.5102C81.1371 12.1701 80.5135 12 79.8102 12C79.1069 12 78.4435 12.1701 77.8198 12.5102C77.2094 12.8367 76.672 13.2993 76.2076 13.898C75.7432 14.483 75.365 15.1633 75.0731 15.9388C75.365 16.7143 75.7432 17.4014 76.2076 18C76.672 18.585 77.2094 19.0476 77.8198 19.3878C78.4435 19.7143 79.1069 19.8776 79.8102 19.8776C80.5135 19.8776 81.1371 19.7143 81.6812 19.3878C82.2252 19.0476 82.6498 18.585 82.955 18C83.2735 17.4014 83.4327 16.7143 83.4327 15.9388Z" fill="white"/>
<path d="M92.9305 22C91.8955 22 91.0131 21.7823 90.2833 21.3469C89.5667 20.9116 89.0161 20.2857 88.6313 19.4694C88.2464 18.6531 88.054 17.6803 88.054 16.551V10.1633H90.6416V16.1429C90.6416 17.3401 90.9069 18.2517 91.4377 18.8776C91.9818 19.4898 92.758 19.7959 93.7665 19.7959C94.4963 19.7959 95.1199 19.6327 95.6375 19.3061C96.1682 18.9796 96.5796 18.517 96.8715 17.9184C97.1634 17.3061 97.3094 16.5986 97.3094 15.7959L98.2051 16.3061C98.0989 17.4898 97.807 18.5102 97.3293 19.3673C96.8516 20.2109 96.2346 20.8639 95.4782 21.3265C94.7219 21.7755 93.8726 22 92.9305 22ZM97.9662 21.7143L97.3094 17.551V10.1633H99.8969V17.9592L100.554 21.7143H97.9662Z" fill="white"/>
<path d="M102.154 21.7143V19.7959L110.952 11.551L112.564 12.2041H102.234V10.1633H113.559V12.0816L104.782 20.3265L103.389 19.6735H113.599V21.7143H102.154Z" fill="white"/>
<defs>
<linearGradient id="paint0_linear_137_130" x1="7.95764" y1="0.00739518" x2="16.7436" y2="30.0208" gradientUnits="userSpaceOnUse">
<stop stop-color="#5065C5"/>
<stop offset="1" stop-color="#889DFF"/>
</linearGradient>
<linearGradient id="paint1_linear_137_130" x1="0.401036" y1="13.4998" x2="34.4005" y2="13.4998" gradientUnits="userSpaceOnUse">
<stop stop-color="#889DFF"/>
<stop offset="1" stop-color="#5065C5"/>
</linearGradient>
<linearGradient id="paint2_linear_137_130" x1="12.6605" y1="6.60295" x2="5.78254" y2="20.6307" gradientUnits="userSpaceOnUse">
<stop stop-color="#3F51A9"/>
<stop offset="0.507" stop-color="#6A83F8"/>
<stop offset="0.9955" stop-color="#3F51A9"/>
</linearGradient>
</defs>
</svg>
